<?xml version="1.0" standalone="no"?>
<!DOCTYPE svg PUBLIC "-//W3C//DTD SVG 20010904//EN"
 "http://www.w3.org/TR/2001/REC-SVG-20010904/DTD/svg10.dtd">
<svg version="1.0" xmlns="http://www.w3.org/2000/svg"
 width="512.000000pt" height="512.000000pt" viewBox="0 0 512.000000 512.000000"
 preserveAspectRatio="xMidYMid meet">
<metadata>
Created by potrace 1.14, written by Peter Selinger 2001-2017
</metadata>
<g transform="translate(0.000000,512.000000) scale(0.100000,-0.100000)"
fill="#000000" stroke="none">
<path d="M3721 4575 c-14 -16 -71 -133 -116 -234 l-42 -94 29 -106 c16 -58 31
-113 33 -121 2 -8 13 -50 24 -92 12 -43 21 -80 21 -83 0 -4 5 -3 10 0 6 3 38
9 73 13 l62 7 0 360 0 360 -43 0 c-24 0 -47 -4 -51 -10z"/>
<path d="M3990 4567 c0 -2 -6 -50 -14 -108 -8 -57 -18 -131 -21 -164 -4 -33
-8 -67 -10 -75 -2 -8 -7 -42 -11 -75 -3 -33 -8 -69 -10 -80 -8 -42 -18 -132
-18 -170 -1 -38 0 -39 39 -46 22 -4 53 -12 68 -18 33 -13 12 -54 184 362 63
153 113 284 110 291 -4 11 -137 57 -207 72 -41 8 -110 16 -110 11z"/>
<path d="M3525 4552 c-11 -2 -67 -19 -125 -38 -428 -143 -742 -490 -845 -936
-37 -160 -38 -248 -9 -948 12 -296 6 -724 -11 -820 -2 -14 -7 -47 -10 -75 -3
-27 -8 -57 -10 -65 -2 -8 -6 -31 -9 -50 -8 -53 -71 -266 -102 -340 -59 -147
-211 -421 -291 -528 -14 -18 -23 -35 -21 -38 9 -8 152 47 262 100 109 54 253
144 331 208 22 18 83 76 135 129 253 256 418 601 459 964 9 74 7 351 -3 470
-2 28 -7 124 -10 215 -4 91 -9 192 -12 225 -8 91 -8 499 0 593 8 98 13 151 31
282 22 166 109 395 213 563 30 49 52 89 51 91 -2 1 -13 1 -24 -2z"/>
<path d="M4423 4328 c-27 -46 -75 -128 -107 -183 -31 -55 -61 -107 -67 -115
-5 -8 -38 -66 -73 -129 l-64 -114 60 -45 60 -45 254 254 255 254 -48 43 c-45
41 -133 107 -195 146 l-26 17 -49 -83z"/>
<path d="M4562 3855 l-281 -215 36 -63 c20 -34 38 -63 39 -65 2 -3 182 69 259
103 17 7 114 48 218 90 103 42 187 79 187 81 0 27 -152 284 -169 284 -4 0
-135 -97 -289 -215z"/>
<path d="M3496 4040 c-3 -8 -17 -69 -31 -134 -17 -85 -21 -124 -14 -137 11
-21 34 -25 44 -9 4 6 28 21 55 35 l48 24 -18 48 c-46 119 -79 187 -84 173z"/>
<path d="M1497 3934 c-1 -1 -31 -5 -67 -8 -56 -6 -200 -34 -208 -41 -3 -3 22
-100 93 -360 24 -88 53 -198 65 -245 12 -47 23 -86 24 -87 2 -2 28 2 60 8 56
10 107 16 156 18 l25 1 0 358 0 357 -73 1 c-40 0 -74 -1 -75 -2z"/>
<path d="M1856 3901 c-3 -14 -7 -46 -10 -71 -5 -38 -42 -323 -51 -385 -1 -11
-6 -47 -10 -80 -4 -33 -10 -81 -14 -106 l-7 -46 60 -12 c34 -7 85 -21 115 -32
30 -10 56 -17 59 -15 5 6 272 649 272 657 0 16 -214 82 -333 103 l-76 13 -5
-26z"/>
<path d="M905 3764 c-133 -67 -274 -162 -257 -173 4 -3 57 -71 118 -151 60
-80 111 -147 114 -150 3 -3 50 -63 104 -133 95 -124 99 -128 119 -113 12 9 59
36 104 61 74 42 81 48 74 68 -5 12 -64 155 -131 317 -67 162 -124 301 -127
308 -8 19 -21 15 -118 -34z"/>
<path d="M4990 3600 c-119 -33 -485 -132 -500 -135 -102 -22 -111 -27 -105
-54 3 -14 7 -45 9 -68 3 -24 7 -46 9 -50 4 -6 664 -10 711 -4 11 1 -1 165 -19
252 -8 39 -15 72 -15 75 0 7 -21 3 -90 -16z"/>
<path d="M2347 3513 c-62 -105 -228 -393 -233 -406 -3 -8 17 -28 51 -51 31
-20 73 -52 94 -72 l39 -35 35 36 c34 35 35 39 32 98 -11 189 -6 354 15 450 4
20 6 37 5 37 -2 0 -19 -26 -38 -57z"/>
<path d="M442 3417 c-78 -83 -232 -292 -220 -301 1 -2 28 -17 58 -33 48 -27
185 -106 230 -133 83 -50 332 -191 334 -188 2 2 16 21 31 43 16 22 49 63 72
92 l44 52 -255 254 -254 255 -40 -41z"/>
<path d="M4378 3139 c-10 -40 -16 -74 -14 -76 7 -7 632 -265 645 -266 23 -3
76 158 95 286 5 33 4 37 -17 38 -12 0 -31 2 -42 4 -11 2 -63 9 -115 15 -52 6
-106 13 -120 15 -31 5 -103 14 -155 21 -22 2 -51 7 -65 9 -14 2 -47 7 -75 10
-27 3 -66 8 -85 10 l-35 6 -17 -72z"/>
<path d="M4298 2963 c-10 -16 -29 -41 -43 -58 l-26 -29 255 -255 255 -255 48
53 c58 64 153 200 153 218 0 7 -4 13 -9 13 -8 0 -292 161 -495 282 -54 32
-104 58 -110 58 -7 0 -19 -12 -28 -27z"/>
<path d="M102 2863 c-12 -32 -28 -80 -37 -108 -16 -52 -55 -238 -51 -242 2 -2
60 -11 201 -29 22 -3 51 -7 65 -9 14 -2 45 -6 70 -9 25 -3 93 -12 151 -20 59
-8 133 -18 167 -22 l60 -6 17 77 c9 42 23 93 32 112 8 20 11 39 6 43 -8 8
-615 259 -644 267 -12 3 -21 -11 -37 -54z"/>
<path d="M3433 2748 c3 -62 6 -115 6 -118 1 -3 21 31 46 74 25 43 44 80 43 81
-2 2 -25 19 -51 40 l-49 36 5 -113z"/>
<path d="M4135 2804 c-11 -9 -37 -24 -57 -33 l-37 -17 137 -332 c75 -182 142
-332 147 -332 26 0 285 150 285 165 0 3 -192 254 -391 513 -43 56 -53 60 -84
36z"/>
<path d="M3597 2743 c-3 -4 -36 -84 -75 -178 -69 -170 -70 -170 -70 -266 0
-53 -3 -132 -7 -176 l-7 -80 69 -17 c37 -9 85 -17 107 -19 43 -2 40 -8 51 98
4 33 8 62 10 65 1 3 6 36 10 73 3 37 8 76 10 85 3 19 12 86 20 152 3 25 7 54
9 65 2 11 7 49 11 85 4 36 8 69 8 74 1 4 -5 10 -13 11 -20 4 -98 25 -115 31
-7 3 -15 2 -18 -3z"/>
<path d="M3930 2720 c-14 -4 -44 -8 -67 -9 l-43 -1 0 -361 0 -362 98 6 c53 3
129 13 168 22 l71 16 -17 67 c-10 37 -44 162 -75 277 -31 116 -58 219 -61 230
-6 25 -8 30 -23 83 -6 23 -15 42 -19 41 -4 -1 -18 -5 -32 -9z"/>
<path d="M4 2195 c5 -88 19 -185 42 -293 5 -24 11 -31 23 -28 25 8 284 77 304
81 10 2 27 7 37 10 10 3 27 8 37 10 10 2 76 20 147 39 71 20 135 36 143 36 15
0 16 11 3 65 -5 22 -11 69 -14 104 -3 35 -8 67 -12 70 -3 3 -165 6 -361 6
l-355 0 6 -100z"/>
<path d="M585 1858 c-104 -44 -248 -104 -320 -133 -71 -29 -131 -58 -133 -63
-2 -6 15 -46 37 -89 74 -149 159 -275 178 -268 7 2 136 99 288 216 169 130
272 216 268 223 -3 6 -19 29 -33 51 -15 22 -39 64 -54 93 -14 28 -30 52 -34
51 -4 -1 -92 -37 -197 -81z"/>
<path d="M2321 1668 c-20 -24 -22 -31 -10 -39 18 -11 25 -2 34 39 8 39 6 39
-24 0z"/>
<path d="M740 1392 c-138 -137 -250 -253 -250 -258 0 -31 301 -262 330 -252 8
2 360 601 360 613 0 2 -17 14 -37 26 -20 13 -63 45 -95 72 l-59 48 -249 -249z"/>
<path d="M2165 1535 c-16 -14 -60 -39 -97 -57 -79 -39 -79 -16 5 -217 l60
-144 25 49 c38 74 122 273 122 288 0 15 -67 106 -78 106 -4 -1 -20 -12 -37
-25z"/>
<path d="M1274 1403 c-98 -235 -254 -615 -254 -622 0 -22 272 -100 362 -104
48 -2 52 0 53 23 1 14 5 43 8 65 3 22 13 96 22 165 9 69 18 139 21 155 2 17 6
55 9 85 3 30 8 62 10 70 2 8 7 41 11 74 7 64 0 75 -46 76 -14 0 -59 12 -100
25 -41 14 -76 25 -77 25 -2 0 -10 -17 -19 -37z"/>
<path d="M1810 1389 c-39 -8 -92 -15 -150 -18 -13 -1 -15 -46 -15 -358 l0
-358 65 1 c147 3 136 0 172 51 18 27 56 84 84 127 l51 80 -33 115 c-17 64 -47
173 -65 244 -25 95 -37 127 -49 126 -8 -1 -35 -5 -60 -10z"/>
</g>
</svg>
